<svg xmlns="http://www.w3.org/2000/svg" viewBox="0 0 47.45 12.18"><defs><style>.cls-1{isolation:isolate;}</style></defs><g id="Слой_2" data-name="Слой 2"><g id="Слой_1-2" data-name="Слой 1"><g id="Слой_2-2" data-name="Слой 2"><g id="Слой_1-2-2" data-name="Слой 1-2"><g class="cls-1"><path d="M10.37,3.24,8.61,12H5.69l.18-.91a3.76,3.76,0,0,1-1.27.79,4,4,0,0,1-1.45.26,3.27,3.27,0,0,1-2.3-.78A2.84,2.84,0,0,1,0,9.18,5.84,5.84,0,0,1,.11,8.09l1-4.85H4.17L3.26,7.8a3.21,3.21,0,0,0-.06.6A1,1,0,0,0,4.38,9.55a1.8,1.8,0,0,0,1.31-.49,2.68,2.68,0,0,0,.72-1.47l.87-4.35Z"/><path d="M11.85,11.94a5.19,5.19,0,0,1-1.63-.62l1.12-2.15a5.69,5.69,0,0,0,1.43.59,6.57,6.57,0,0,0,1.62.22c.94,0,1.41-.22,1.41-.64,0-.17-.11-.3-.33-.38a5.87,5.87,0,0,0-1.06-.23,13.69,13.69,0,0,1-1.6-.38,2.77,2.77,0,0,1-1.1-.69,1.91,1.91,0,0,1-.47-1.37,2.66,2.66,0,0,1,1.31-2.36,6.24,6.24,0,0,1,3.38-.83,9.06,9.06,0,0,1,1.82.18,6.44,6.44,0,0,1,1.52.52L18.18,6a5,5,0,0,0-2.61-.66,2.41,2.41,0,0,0-1.06.18.57.57,0,0,0-.35.48c0,.18.11.3.33.38a7.26,7.26,0,0,0,1.1.27A11.13,11.13,0,0,1,17.16,7a2.84,2.84,0,0,1,1.08.7A1.86,1.86,0,0,1,18.7,9a2.63,2.63,0,0,1-1.31,2.36,6.24,6.24,0,0,1-3.36.82A9.78,9.78,0,0,1,11.85,11.94Z"/><path d="M30.46,3.24,28.71,12H25.79l.18-.91a3.76,3.76,0,0,1-1.27.79,4,4,0,0,1-1.45.26A3.27,3.27,0,0,1,21,11.4a2.84,2.84,0,0,1-.85-2.22,5.84,5.84,0,0,1,.11-1.09l1-4.85h3.08L23.36,7.8a3.21,3.21,0,0,0-.06.6,1,1,0,0,0,1.18,1.15,1.8,1.8,0,0,0,1.31-.49,2.68,2.68,0,0,0,.72-1.47l.87-4.35Z"/><path d="M41.74,3.24,40,12H37.07l.17-.83a3.6,3.6,0,0,1-2.54,1,3.68,3.68,0,0,1-1.83-.48,3.63,3.63,0,0,1-1.37-1.38A4.33,4.33,0,0,1,31,8.17a5.2,5.2,0,0,1,.65-2.58,4.83,4.83,0,0,1,1.73-1.83,4.55,4.55,0,0,1,2.39-.66,3,3,0,0,1,2.7,1.2l.21-1.06ZM37.28,9a2.62,2.62,0,0,0,.58-1.77A1.7,1.7,0,0,0,37.42,6a1.67,1.67,0,0,0-1.23-.46,1.91,1.91,0,0,0-1.51.68A2.66,2.66,0,0,0,34.1,8a1.66,1.66,0,0,0,.44,1.22,1.66,1.66,0,0,0,1.23.45A1.91,1.91,0,0,0,37.28,9Z"/><path d="M44.37,0h3.08l-2.4,12H42Z"/></g></g></g></g></g></svg>